<?xml version="1.0" encoding="UTF-8"?>
<!DOCTYPE svg PUBLIC "-//W3C//DTD SVG 1.1//EN" "http://www.w3.org/Graphics/SVG/1.1/DTD/svg11.dtd">
<svg xmlns="http://www.w3.org/2000/svg" version="1.1" width="2100px" height="692px" style="shape-rendering:geometricPrecision; text-rendering:geometricPrecision; image-rendering:optimizeQuality; fill-rule:evenodd; clip-rule:evenodd" xmlns:xlink="http://www.w3.org/1999/xlink">
<g><path style="opacity:1" fill="#fe0000" d="M 1182.5,16.5 C 1201.24,15.935 1219.91,16.7683 1238.5,19C 1245.89,19.9038 1252.39,22.7371 1258,27.5C 1258.67,28.8333 1259.33,30.1667 1260,31.5C 1260.33,108.167 1260.67,184.833 1261,261.5C 1315.85,206.125 1380.35,190.958 1454.5,216C 1492.24,233.737 1519.07,261.904 1535,300.5C 1547.83,333.628 1555.16,367.961 1557,403.5C 1559.59,443.279 1556.59,482.612 1548,521.5C 1539.59,558.32 1523.26,590.987 1499,619.5C 1460.73,657.591 1414.57,673.425 1360.5,667C 1335.29,664.597 1312.29,656.264 1291.5,642C 1273.82,629.655 1257.98,615.155 1244,598.5C 1243.67,614.5 1243.33,630.5 1243,646.5C 1241.19,650.974 1238.03,654.141 1233.5,656C 1208.25,661.541 1182.92,661.875 1157.5,657C 1151.68,655.858 1147.52,652.691 1145,647.5C 1143.34,443.534 1143.01,239.534 1144,35.5C 1144.91,28.5888 1148.74,24.0888 1155.5,22C 1164.46,19.2893 1173.46,17.456 1182.5,16.5 Z M 1345.5,304.5 C 1371.94,301.361 1393.44,310.027 1410,330.5C 1423.31,350.092 1431.31,371.759 1434,395.5C 1437.29,422.174 1437.29,448.84 1434,475.5C 1430.85,499.781 1422.18,521.781 1408,541.5C 1384.86,568.659 1356.7,575.492 1323.5,562C 1305.98,552.156 1290.48,539.656 1277,524.5C 1271.9,517.981 1266.57,511.648 1261,505.5C 1260.33,460.167 1260.33,414.833 1261,369.5C 1273.57,352.213 1288.07,336.713 1304.5,323C 1316.76,313.531 1330.43,307.365 1345.5,304.5 Z"/></g>
<g><path style="opacity:1" fill="#fefffe" d="M 952.5,32.5 C 965.171,32.3334 977.838,32.5001 990.5,33C 1002.55,33.7569 1013.55,37.4235 1023.5,44C 1031.26,52.2578 1035.76,62.0911 1037,73.5C 1039.51,90.7191 1038.51,107.719 1034,124.5C 1030.04,138.064 1021.2,146.564 1007.5,150C 980.632,156.505 953.965,155.838 927.5,148C 916.619,142.782 909.785,134.282 907,122.5C 902.388,101.342 903.055,80.3425 909,59.5C 913.84,46.6634 923.007,38.8301 936.5,36C 941.954,34.7451 947.287,33.5784 952.5,32.5 Z"/></g>
<g><path style="opacity:1" fill="#fefffe" d="M 62.5,58.5 C 83.1842,58.295 103.851,58.795 124.5,60C 131.891,60.3497 138.391,62.8497 144,67.5C 144.667,68.8333 145.333,70.1667 146,71.5C 181.793,226.799 217.46,382.133 253,537.5C 290,384.167 327,230.833 364,77.5C 367.195,68.9607 373.362,63.794 382.5,62C 415.171,57.3507 447.838,57.3507 480.5,62C 490.231,64.064 496.397,69.8974 499,79.5C 536.844,232.542 574.844,385.542 613,538.5C 648.54,383.799 684.207,229.133 720,74.5C 721.679,70.6182 724.179,67.4516 727.5,65C 733.849,62.0795 740.515,60.4128 747.5,60C 771.879,57.7607 796.212,58.094 820.5,61C 830.668,63.491 835.335,69.991 834.5,80.5C 834.093,88.6063 832.927,96.6063 831,104.5C 785,279.167 739,453.833 693,628.5C 689.91,643.256 681.077,652.422 666.5,656C 627.556,661.609 588.556,661.943 549.5,657C 535.342,655.515 526.175,648.015 522,634.5C 489.667,506.5 457.333,378.5 425,250.5C 394.177,378.125 363.51,505.792 333,633.5C 329.993,643.84 323.493,651.007 313.5,655C 306.306,657.106 298.972,658.439 291.5,659C 257.763,661.376 224.096,660.71 190.5,657C 173.169,653.665 163.335,643.165 161,625.5C 114.53,447.952 68.5297,270.286 23,92.5C 21.6705,86.5482 21.3372,80.5482 22,74.5C 24.7614,66.7455 30.2614,62.2455 38.5,61C 46.6369,60.0551 54.6369,59.2218 62.5,58.5 Z"/></g>
<g><path style="opacity:1" fill="#fefffe" d="M 949.5,212.5 C 963.837,212.333 978.171,212.5 992.5,213C 1002.97,213.427 1012.97,215.76 1022.5,220C 1025.73,221.563 1027.9,224.063 1029,227.5C 1029.67,366.833 1029.67,506.167 1029,645.5C 1027.56,649.275 1025.06,652.108 1021.5,654C 1014.43,656.814 1007.1,658.481 999.5,659C 978.125,661.145 956.792,660.812 935.5,658C 929.095,657.198 923.095,655.198 917.5,652C 915.106,650.048 913.606,647.548 913,644.5C 912.333,505.833 912.333,367.167 913,228.5C 914.556,223.124 918.056,219.624 923.5,218C 932.146,215.398 940.813,213.565 949.5,212.5 Z"/></g>
<g><path style="opacity:1" fill="#fe0000" d="M 1682.5,212.5 C 1700.86,212.131 1719.2,212.631 1737.5,214C 1747.18,214.219 1755.35,217.719 1762,224.5C 1763.33,311.443 1763.99,398.443 1764,485.5C 1764.25,506.193 1769.92,525.193 1781,542.5C 1801.13,564.991 1825.63,571.491 1854.5,562C 1869.01,555.578 1882.01,546.911 1893.5,536C 1903.7,525.466 1913.54,514.632 1923,503.5C 1923.33,411.167 1923.67,318.833 1924,226.5C 1925.9,221.6 1929.4,218.433 1934.5,217C 1949.94,213.256 1965.6,211.756 1981.5,212.5C 1994.58,212.233 2007.58,213.067 2020.5,215C 2026.91,216.124 2032.41,218.957 2037,223.5C 2037.86,225.087 2038.53,226.754 2039,228.5C 2039.67,367.167 2039.67,505.833 2039,644.5C 2035.88,652.993 2029.71,657.493 2020.5,658C 1998.1,661.512 1975.77,661.179 1953.5,657C 1947.16,655.759 1942.66,652.259 1940,646.5C 1939.67,629.5 1939.33,612.5 1939,595.5C 1915.69,622.141 1887.86,642.641 1855.5,657C 1822.85,668.319 1789.51,670.652 1755.5,664C 1700,649.833 1666.17,614.666 1654,558.5C 1649.08,533.75 1646.74,508.75 1647,483.5C 1646.83,441.333 1646.67,399.167 1646.5,357C 1646.35,313.13 1646.85,269.297 1648,225.5C 1649.83,222.333 1652.33,219.833 1655.5,218C 1664.46,215.289 1673.46,213.456 1682.5,212.5 Z"/></g>
</svg>
